<svg width="72" height="72" viewBox="0 0 72 72" fill="none" xmlns="http://www.w3.org/2000/svg">
<g clip-path="url(#clip0_626_2)">
<path d="M45.8067 66.9867L46.2067 66.6867L52.5333 61.9417L58.86 66.6867L59.26 66.9867L59.66 67.2867L59.6895 67.2473C59.9648 67.3794 60.2627 67.462 60.5695 67.4896C61.0442 67.5324 61.5215 67.4422 61.9478 67.229C62.3742 67.0159 62.7327 66.6882 62.9833 66.2827C63.1453 66.0207 63.258 65.7328 63.3175 65.4333H63.3667V64.9333V64.4333V50.46C65.9018 47.8006 67.3691 44.3021 67.4917 40.6333H67.5V40.1333V39.6333H67.4917C67.3652 35.8454 65.8051 32.239 63.1164 29.5503C60.4276 26.8616 56.8212 25.3015 53.0333 25.175V25.1667H52.5333H52.0333V25.175C48.2454 25.3015 44.639 26.8616 41.9503 29.5503C39.2616 32.239 37.7015 35.8454 37.575 39.6333H37.5667V40.1333V40.6333H37.575C37.6975 44.3021 39.1649 47.8006 41.7 50.46V64.4333V64.9333V65.4333H41.7492C41.8087 65.7328 41.9214 66.0207 42.0833 66.2827C42.3339 66.6882 42.6925 67.0159 43.1188 67.229C43.5452 67.4422 44.0224 67.5324 44.4972 67.4896C44.804 67.462 45.1019 67.3794 45.3772 67.2473L45.4067 67.2867L45.8067 66.9867ZM46.8333 59.8V53.9721C48.4729 54.6474 50.2326 55.0315 52.0333 55.0917V55.1H52.5333H53.0333V55.0917C54.834 55.0315 56.5937 54.6474 58.2333 53.9721V59.8L54.4733 56.98L54.0733 56.68L53.6733 56.38L53.6438 56.4193C53.2992 56.2539 52.9199 56.1667 52.5333 56.1667C52.1468 56.1667 51.7675 56.2539 51.4228 56.4193L51.3933 56.38L50.9933 56.68L50.5933 56.98L46.8333 59.8ZM52.5333 30.3C55.1413 30.3 57.6424 31.336 59.4865 33.1801C61.3307 35.0242 62.3667 37.5254 62.3667 40.1333C62.3667 42.7413 61.3307 45.2424 59.4865 47.0866C59.1949 47.3782 58.8868 47.6497 58.5644 47.9H58.2333V48.1462C56.5795 49.3226 54.5896 49.9667 52.5333 49.9667C50.477 49.9667 48.4871 49.3226 46.8333 48.1462V47.9H46.5022C46.1799 47.6497 45.8718 47.3782 45.5801 47.0866C43.736 45.2424 42.7 42.7413 42.7 40.1333C42.7 37.5254 43.736 35.0242 45.5801 33.1801C47.4242 31.336 49.9254 30.3 52.5333 30.3ZM67 26.1667H67.5V25.6667V11.7V11.2V10.7H67.4813C67.3621 9.1059 66.6757 7.6005 65.5376 6.46238C64.3995 5.32427 62.8941 4.6379 61.3 4.51867V4.5H60.8H60.3H11.7H11.2H10.7V4.51867C9.1059 4.6379 7.6005 5.32427 6.46238 6.46238C5.32427 7.6005 4.6379 9.1059 4.51867 10.7H4.5V11.2V11.7V60.3V60.8V61.3H4.51867C4.6379 62.8941 5.32427 64.3995 6.46238 65.5376C7.6005 66.6757 9.1059 67.3621 10.7 67.4813V67.5H11.2H11.7H38.0667H38.5667V67V62.8667V62.3667H38.0667H11.7H11.2C10.7845 62.3667 10.386 62.2016 10.0922 61.9078C9.79839 61.614 9.63333 61.2155 9.63333 60.8V60.3V11.7V11.2C9.63333 10.7845 9.79839 10.386 10.0922 10.0922C10.386 9.79839 10.7845 9.63333 11.2 9.63333H11.7H60.3H60.8C61.2155 9.63333 61.614 9.79839 61.9078 10.0922C62.2016 10.386 62.3667 10.7845 62.3667 11.2V11.7V25.6667V26.1667H62.8667H67ZM16.9 25.6667V26.1667H17.4H38.0667H38.5667V25.6667V21.5333V21.0333H38.0667H17.4H16.9V21.5333V25.6667ZM16.9 38.0667V38.5667H17.4H29.8H30.3V38.0667V33.9333V33.4333H29.8H17.4H16.9V33.9333V38.0667Z" fill="#4B2A63" stroke="#4B2A63"/>
</g>
<defs>
<clipPath id="clip0_626_2">
<rect width="62" height="62" fill="white" transform="translate(5 5)"/>
</clipPath>
</defs>
</svg>
