<svg width="72" height="72" viewBox="0 0 72 72" fill="none" xmlns="http://www.w3.org/2000/svg">
<path d="M9.00009 38.9999H12.0001V59.9999C12.0001 63.3089 14.6911 65.9999 18.0001 65.9999H54.0001C57.3091 65.9999 60.0001 63.3089 60.0001 59.9999V38.9999H63.0001C63.5933 38.9998 64.1732 38.8238 64.6665 38.4941C65.1597 38.1645 65.5441 37.696 65.7711 37.1479C65.9981 36.5998 66.0575 35.9967 65.9418 35.4148C65.8261 34.833 65.5405 34.2985 65.1211 33.8789L38.1211 6.87893C37.8427 6.60009 37.5121 6.37888 37.1482 6.22795C36.7842 6.07702 36.3941 5.99933 36.0001 5.99933C35.6061 5.99933 35.216 6.07702 34.852 6.22795C34.4881 6.37888 34.1575 6.60009 33.8791 6.87893L6.87909 33.8789C6.45966 34.2985 6.17405 34.833 6.05834 35.4148C5.94264 35.9967 6.00205 36.5998 6.22906 37.1479C6.45607 37.696 6.84049 38.1645 7.33372 38.4941C7.82695 38.8238 8.40684 38.9998 9.00009 38.9999ZM36.0001 13.2419L54.0001 31.2419V44.9999L54.0031 59.9999H18.0001V31.2419L36.0001 13.2419Z" fill="#4B2A63"/>
<path d="M35.9999 53.9999C47.1089 53.9999 50.7029 43.3829 50.8499 42.9329L45.1499 41.0699C45.1259 41.1389 42.8069 47.9999 35.9999 47.9999C29.2859 47.9999 26.9399 41.3369 26.8469 41.0519L21.1499 42.9329C21.2969 43.3829 24.8909 53.9999 35.9999 53.9999Z" fill="#4B2A63"/>
</svg>
