<svg width="25" height="25" viewBox="0 0 25 25" fill="none" xmlns="http://www.w3.org/2000/svg">
<path d="M12.499 7.68439C11.2216 7.68439 9.99644 8.19186 9.09314 9.09516C8.18984 9.99846 7.68237 11.2236 7.68237 12.5011C7.68237 13.7785 8.18984 15.0036 9.09314 15.9069C9.99644 16.8102 11.2216 17.3177 12.499 17.3177C13.7765 17.3177 15.0016 16.8102 15.9049 15.9069C16.8082 15.0036 17.3157 13.7785 17.3157 12.5011C17.3157 11.2236 16.8082 9.99846 15.9049 9.09516C15.0016 8.19186 13.7765 7.68439 12.499 7.68439V7.68439ZM12.499 15.6292C11.6691 15.6292 10.8732 15.2995 10.2864 14.7127C9.69955 14.1258 9.36987 13.3299 9.36987 12.5C9.36987 11.6701 9.69955 10.8742 10.2864 10.2874C10.8732 9.70052 11.6691 9.37085 12.499 9.37085C13.3289 9.37085 14.1249 9.70052 14.7117 10.2874C15.2985 10.8742 15.6282 11.6701 15.6282 12.5C15.6282 13.3299 15.2985 14.1258 14.7117 14.7127C14.1249 15.2995 13.3289 15.6292 12.499 15.6292V15.6292Z" fill="black"/>
<path d="M17.5062 8.63017C18.1264 8.63017 18.6291 8.12742 18.6291 7.50725C18.6291 6.88709 18.1264 6.38434 17.5062 6.38434C16.886 6.38434 16.3833 6.88709 16.3833 7.50725C16.3833 8.12742 16.886 8.63017 17.5062 8.63017Z" fill="black"/>
<path d="M21.3887 6.36561C21.1475 5.74288 20.779 5.17736 20.3067 4.70525C19.8344 4.23314 19.2688 3.86485 18.6459 3.62394C17.9171 3.35035 17.1472 3.20242 16.3689 3.18644C15.3657 3.14269 15.048 3.13019 12.5043 3.13019C9.96053 3.13019 9.63449 3.13019 8.6397 3.18644C7.86198 3.2016 7.09257 3.34956 6.3647 3.62394C5.74171 3.86456 5.17591 4.23276 4.70359 4.70491C4.23126 5.17705 3.86285 5.74271 3.62199 6.36561C3.34835 7.09437 3.20075 7.86439 3.18553 8.64269C3.14074 9.64477 3.1272 9.96248 3.1272 12.5073C3.1272 15.051 3.1272 15.375 3.18553 16.3719C3.20116 17.151 3.34803 17.9198 3.62199 18.65C3.86353 19.2726 4.2323 19.8381 4.70473 20.3102C5.17717 20.7822 5.74289 21.1506 6.36574 21.3916C7.09223 21.6762 7.86196 21.8348 8.64178 21.8604C9.64491 21.9041 9.96261 21.9177 12.5064 21.9177C15.0501 21.9177 15.3762 21.9177 16.3709 21.8604C17.1492 21.8446 17.9191 21.697 18.648 21.4239C19.2707 21.1825 19.8362 20.8139 20.3084 20.3416C20.7807 19.8694 21.1493 19.3039 21.3907 18.6812C21.6647 17.9521 21.8116 17.1833 21.8272 16.4041C21.872 15.4021 21.8855 15.0844 21.8855 12.5396C21.8855 9.99477 21.8855 9.67186 21.8272 8.67498C21.8151 7.88568 21.6667 7.10441 21.3887 6.36561V6.36561ZM20.1199 16.2948C20.1132 16.8951 20.0036 17.4898 19.7959 18.0531C19.6395 18.4582 19.4 18.826 19.0929 19.133C18.7858 19.4399 18.4178 19.6792 18.0126 19.8354C17.4556 20.0421 16.8672 20.1517 16.273 20.1594C15.2834 20.2052 15.0043 20.2166 12.4668 20.2166C9.9272 20.2166 9.66782 20.2166 8.65949 20.1594C8.06566 20.1521 7.47754 20.0425 6.92095 19.8354C6.51437 19.6802 6.14491 19.4413 5.83646 19.1343C5.52801 18.8273 5.28744 18.459 5.13032 18.0531C4.92558 17.4959 4.81606 16.9081 4.80636 16.3146C4.76157 15.325 4.75116 15.0458 4.75116 12.5083C4.75116 9.96977 4.75116 9.7104 4.80636 8.70102C4.8131 8.10105 4.92267 7.50667 5.13032 6.94373C5.44803 6.12186 6.09907 5.47498 6.92095 5.1604C7.47781 4.95429 8.06577 4.84473 8.65949 4.83644C9.65011 4.79165 9.92824 4.77915 12.4668 4.77915C15.0053 4.77915 15.2657 4.77915 16.273 4.83644C16.8672 4.84359 17.4557 4.95318 18.0126 5.1604C18.4177 5.31693 18.7857 5.55644 19.0928 5.86355C19.3999 6.17067 19.6394 6.5386 19.7959 6.94373C20.0007 7.50097 20.1102 8.08869 20.1199 8.68227C20.1647 9.6729 20.1762 9.95102 20.1762 12.4896C20.1762 15.0271 20.1762 15.3 20.1314 16.2958H20.1199V16.2948Z" fill="black"/>
</svg>
