<svg width="25" height="25" viewBox="0 0 25 25" fill="none" xmlns="http://www.w3.org/2000/svg">
<g clip-path="url(#clip0_604_52)">
<path d="M4.90181 0.00616455C2.20888 0.00616455 0.00488281 2.21011 0.00488281 4.90309V20.0991C0.00488281 22.792 2.20883 24.9952 4.90181 24.9952H20.0978C22.7908 24.9952 24.994 22.7921 24.994 20.0991V4.90309C24.994 2.21016 22.7908 0.00616455 20.0978 0.00616455H4.90181ZM6.13346 4.12986C7.42466 4.12986 8.21998 4.97751 8.24453 6.09174C8.24453 7.18136 7.42461 8.05284 6.10848 8.05284H6.08426C4.81763 8.05284 3.99896 7.18141 3.99896 6.09174C3.99896 4.97754 4.84241 4.12986 6.13343 4.12986H6.13346ZM17.2605 9.33761C19.7437 9.33761 21.6052 10.9607 21.6052 14.4485V20.9597H17.8314V14.8851C17.8314 13.3586 17.2852 12.3171 15.9195 12.3171C14.8769 12.3171 14.2554 13.0191 13.9826 13.6972C13.8829 13.9398 13.8584 14.2786 13.8584 14.618V20.9597H10.0846C10.0846 20.9597 10.1341 10.6694 10.0846 9.60391H13.8592V11.212C14.3607 10.4383 15.2577 9.33759 17.2605 9.33759V9.33761ZM4.22156 9.60474H7.99538V20.9598H4.22156V9.60474V9.60474Z" fill="black"/>
</g>
<defs>
<clipPath id="clip0_604_52">
<rect width="25" height="25" fill="white"/>
</clipPath>
</defs>
</svg>
