<svg width="25" height="25" viewBox="0 0 25 25" fill="none" xmlns="http://www.w3.org/2000/svg">
<path d="M24.6282 5.14269C23.7584 5.5281 22.824 5.78852 21.8417 5.90623C22.8552 5.29976 23.6135 4.34526 23.975 3.22081C23.0228 3.78643 21.9806 4.18456 20.8938 4.3979C20.1629 3.61755 19.1949 3.10032 18.14 2.92651C17.085 2.75271 16.0022 2.93205 15.0597 3.4367C14.1171 3.94135 13.3675 4.74306 12.9273 5.71738C12.487 6.69169 12.3808 7.78409 12.625 8.82498C10.6955 8.7281 8.80798 8.22659 7.08485 7.353C5.36172 6.47942 3.84153 5.25327 2.62295 3.75415C2.20628 4.4729 1.9667 5.30623 1.9667 6.19373C1.96623 6.99268 2.16298 7.7794 2.53949 8.48407C2.916 9.18875 3.46062 9.7896 4.12503 10.2333C3.35449 10.2088 2.60094 10.0006 1.92712 9.62602V9.68852C1.92704 10.8091 2.31465 11.8952 3.02418 12.7625C3.73371 13.6298 4.72146 14.2249 5.81982 14.4469C5.10502 14.6403 4.35559 14.6688 3.62816 14.5302C3.93805 15.4944 4.54169 16.3375 5.35458 16.9416C6.16747 17.5456 7.1489 17.8804 8.16149 17.8989C6.44257 19.2483 4.31971 19.9803 2.13441 19.9771C1.7473 19.9772 1.36053 19.9546 0.976074 19.9094C3.19428 21.3356 5.77643 22.0925 8.41357 22.0896C17.3407 22.0896 22.2209 14.6958 22.2209 8.28331C22.2209 8.07498 22.2157 7.86456 22.2063 7.65623C23.1555 6.96974 23.9749 6.11966 24.6261 5.14581L24.6282 5.14269V5.14269Z" fill="black"/>
</svg>
